HIERARCHY
ROOT Hips
{
 OFFSET 0.000000 0.000000 0.000000
 CHANNELS 6 Xposition Yposition Zposition Yrotation Xrotation Zrotation
 JOINT Chest
 {
  OFFSET 0.000000 9.585900 0.002600
  CHANNELS 3 Yrotation Xrotation Zrotation
  JOINT Chest2
  {
   OFFSET 0.000000 9.601200 -0.005300
   CHANNELS 3 Yrotation Xrotation Zrotation
   JOINT Chest3
   {
    OFFSET 0.000000 9.561800 0.000000
    CHANNELS 3 Yrotation Xrotation Zrotation
    JOINT Chest4
    {
     OFFSET 0.000000 9.552100 0.000000
     CHANNELS 3 Yrotation Xrotation Zrotation
     JOINT Neck
     {
      OFFSET 0.000000 14.453000 0.000000
      CHANNELS 3 Yrotation Xrotation Zrotation
      JOINT Head
      {
       OFFSET 0.000000 8.936500 -0.011300
       CHANNELS 3 Yrotation Xrotation Zrotation
       End Site
       {
        OFFSET 0.000000 17.073600 -0.006000
       }
      }
     }
     JOINT RightCollar
     {
      OFFSET -2.921100 9.558500 0.000000
      CHANNELS 3 Yrotation Xrotation Zrotation
      JOINT RightShoulder
      {
       OFFSET -13.519700 0.000000 0.000000
       CHANNELS 3 Yrotation Xrotation Zrotation
       JOINT RightElbow
       {
        OFFSET 0.000000 -29.696600 0.000000
        CHANNELS 3 Yrotation Xrotation Zrotation
        JOINT RightWrist
        {
         OFFSET 0.000000 -24.004700 0.000000
         CHANNELS 3 Yrotation Xrotation Zrotation
         End Site
         {
          OFFSET 0.000000 -17.728500 0.000000
         }
        }
       }
      }
     }
     JOINT LeftCollar
     {
      OFFSET 2.921100 9.558500 0.000000
      CHANNELS 3 Yrotation Xrotation Zrotation
      JOINT LeftShoulder
      {
       OFFSET 13.519700 0.000000 0.000000
       CHANNELS 3 Yrotation Xrotation Zrotation
       JOINT LeftElbow
       {
        OFFSET 0.000000 -29.696600 0.000000
        CHANNELS 3 Yrotation Xrotation Zrotation
        JOINT LeftWrist
        {
         OFFSET 0.000000 -24.004700 0.000000
         CHANNELS 3 Yrotation Xrotation Zrotation
         End Site
         {
          OFFSET 0.000000 -17.728500 0.000000
         }
        }
       }
      }
     }
    }
   }
  }
 }
 JOINT RightHip
 {
  OFFSET -7.771700 -0.012900 -0.001300
  CHANNELS 3 Yrotation Xrotation Zrotation
  JOINT RightKnee
  {
   OFFSET 0.000000 -40.869800 0.001200
   CHANNELS 3 Yrotation Xrotation Zrotation
   JOINT RightAnkle
   {
    OFFSET 0.000000 -39.717900 0.002100
    CHANNELS 3 Yrotation Xrotation Zrotation
    JOINT RightToe
    {
     OFFSET 0.000000 -4.965400 11.033500
     CHANNELS 3 Yrotation Xrotation Zrotation
     End Site
     {
      OFFSET 0.000000 -1.423100 5.872300
     }
    }
   }
  }
 }
 JOINT LeftHip
 {
  OFFSET 7.771700 -0.012900 -0.001300
  CHANNELS 3 Yrotation Xrotation Zrotation
  JOINT LeftKnee
  {
   OFFSET 0.000000 -40.869800 0.001200
   CHANNELS 3 Yrotation Xrotation Zrotation
   JOINT LeftAnkle
   {
    OFFSET 0.000000 -39.717900 0.002100
    CHANNELS 3 Yrotation Xrotation Zrotation
    JOINT LeftToe
    {
     OFFSET 0.000000 -4.965400 11.033500
     CHANNELS 3 Yrotation Xrotation Zrotation
     End Site
     {
      OFFSET 0.000000 -1.423100 5.872300
     }
    }
   }
  }
 }
}
MOTION
Frames: 12
Frame Time: 0.008333
0.000000 85.388000 0.000000 0.000000 -5.767877 0.000000 0.000000 11.653817 0.000000 0.000000 -5.885947 0.000000 0.000000 -0.000000 0.000000 0.000000 -0.000000 0.000000 0.000000 12.528835 0.000000 0.000000 0.711642 0.000000 0.000000 -0.000000 0.000000 0.000000 0.000000 -90.000000 0.000000 -2.309062 0.000000 0.000000 2.309062 0.000000 0.000000 -0.000000 0.000000 0.000000 -0.000000 90.000000 0.000000 -2.309062 0.000000 0.000000 2.309062 0.000000 0.000000 8.520406 0.000000 0.000000 1.905762 0.000000 -0.000000 -4.658285 0.000000 0.000000 -0.000000 0.000000 0.000000 8.520406 0.000000 0.000000 1.905762 0.000000 -0.000000 -4.658285 0.000000 0.000000 -0.000000 0.000000
-30.605293 57.957360 90.541417 -165.987817 -48.420965 -1.583706 -8.008608 28.679806 -0.619225 -1.429601 5.584532 0.068960 -2.236395 8.719947 0.046272 -6.153286 23.122473 -0.677448 0.926394 11.033121 -2.633585 2.938126 -15.211743 -5.473684 5.097055 0.673393 -2.623406 26.146552 -31.755771 -24.651322 56.756346 -72.010060 -9.977711 12.152754 -8.646470 -20.619546 -12.545404 -3.861345 -5.521801 -8.760610 -38.692879 -1.080155 -28.695750 -47.684864 1.636098 -22.028999 -1.506427 -0.695096 0.721269 -21.935326 -15.001355 -3.472668 79.255202 3.217288 -0.720928 -5.858837 -1.116389 -0.014556 0.135985 0.004533 -13.996393 -27.694775 -17.102346 65.506973 77.294629 61.240594 -18.911122 -11.504984 0.470735 -0.242329 -0.839775 -0.107764
-30.605986 57.957861 90.541647 -165.989384 -48.419780 -1.583570 -8.010636 28.677914 -0.618303 -1.429340 5.584487 0.068430 -2.236897 8.721882 0.046617 -6.154320 23.122235 -0.678762 0.934654 11.038315 -2.637896 2.947832 -15.197755 -5.476541 5.100453 0.674074 -2.631794 26.152576 -31.755494 -24.650509 56.747058 -72.011164 -9.972988 12.150502 -8.647400 -20.623060 -12.541618 -3.861870 -5.524915 -8.758047 -38.695321 -1.083471 -28.718438 -47.674493 1.655828 -22.043925 -1.492284 -0.725058 0.723448 -21.935635 -15.000766 -3.472093 79.254263 3.219333 -0.722164 -5.858779 -1.116751 -0.014422 0.137012 0.003092 -13.996690 -27.693211 -17.095959 65.473476 77.301310 61.204568 -18.909490 -11.508436 0.469054 -0.231915 -0.836394 -0.103424
-30.606613 57.958734 90.541577 -165.992712 -48.420967 -1.585142 -8.006451 28.678463 -0.614245 -1.428815 5.584621 0.068205 -2.236058 8.720345 0.045954 -6.152936 23.122191 -0.679104 0.940020 11.047453 -2.638950 2.956728 -15.184505 -5.479373 5.105059 0.682331 -2.640150 26.143887 -31.762718 -24.645490 56.732735 -72.014411 -9.954834 12.149560 -8.647783 -20.627920 -12.545297 -3.848686 -5.529126 -8.759281 -38.699444 -1.077200 -28.736387 -47.675232 1.670526 -22.061111 -1.475637 -0.752787 0.725616 -21.933798 -14.994645 -3.493148 79.252587 3.197497 -0.720697 -5.856090 -1.115647 -0.014870 0.135552 0.003638 -13.997876 -27.689590 -17.089380 65.467880 77.300469 61.197892 -18.917337 -11.511932 0.468209 -0.216114 -0.834457 -0.101501
-30.610306 57.959327 90.542386 -165.991761 -48.420088 -1.573213 -8.013070 28.676027 -0.628318 -1.429153 5.584223 0.068435 -2.236067 8.719946 0.044869 -6.150358 23.123036 -0.681184 0.942346 11.050764 -2.636183 2.970433 -15.168437 -5.484082 5.106696 0.685310 -2.638936 26.142004 -31.762931 -24.648625 56.722629 -72.018129 -9.946227 12.153460 -8.650628 -20.629283 -12.555009 -3.842608 -5.529059 -8.788380 -38.693397 -1.059199 -28.740988 -47.680470 1.703470 -22.078666 -1.465072 -0.771997 0.731438 -21.935168 -15.008557 -3.492478 79.254333 3.193934 -0.720201 -5.856444 -1.115199 -0.016619 0.136008 0.005619 -13.995789 -27.693755 -17.097080 65.439764 77.303799 61.157461 -18.919818 -11.502603 0.480779 -0.205345 -0.837377 -0.105648
-30.613790 57.960040 90.542932 -165.988946 -48.420309 -1.566523 -8.018943 28.676760 -0.637703 -1.428810 5.582541 0.068256 -2.234429 8.720095 0.045264 -6.148447 23.123431 -0.679497 0.942538 11.053807 -2.636924 2.982321 -15.152405 -5.487359 5.103829 0.686046 -2.639704 26.142263 -31.757827 -24.655784 56.712707 -72.026286 -9.937817 12.161595 -8.654661 -20.633288 -12.577050 -3.843500 -5.543343 -8.851354 -38.679581 -1.029228 -28.794766 -47.711305 1.764762 -22.016865 -1.443904 -0.695372 0.733420 -21.934695 -15.018352 -3.485205 79.255050 3.196313 -0.718844 -5.857313 -1.111096 -0.018085 0.136917 0.003757 -13.993413 -27.695180 -17.105615 65.420155 77.304314 61.131350 -18.919061 -11.496015 0.488703 -0.245626 -0.841046 -0.108128
-30.617542 57.960925 90.543165 -165.983941 -48.422432 -1.562292 -8.027837 28.681035 -0.645925 -1.427510 5.581803 0.065484 -2.240378 8.732258 0.046671 -6.143964 23.112592 -0.682101 0.946830 11.075545 -2.634618 2.992576 -15.159753 -5.492442 5.111235 0.691446 -2.641254 26.132820 -31.761286 -24.666491 56.680534 -72.039469 -9.896444 12.174780 -8.656509 -20.645451 -12.609637 -3.852849 -5.566949 -8.990222 -38.653294 -0.976483 -28.763639 -47.736641 1.831240 -21.932531 -1.452400 -0.566543 0.733449 -21.931861 -15.025506 -3.480135 79.255433 3.193595 -0.717595 -5.858753 -1.102673 -0.014408 0.137977 -0.000899 -13.992049 -27.692858 -17.112310 65.400407 77.303727 61.103055 -18.917294 -11.492725 0.495329 -0.243058 -0.841387 -0.107500
-30.621302 57.962407 90.542547 -165.982291 -48.430028 -1.558141 -8.037320 28.693080 -0.653196 -1.433100 5.592952 0.067526 -2.241803 8.731924 0.043749 -6.144398 23.108712 -0.684275 0.949474 11.082423 -2.635838 3.012108 -15.164027 -5.504284 5.127485 0.690455 -2.650335 26.122934 -31.769824 -24.673353 56.672811 -72.050873 -9.867181 12.189037 -8.661423 -20.679521 -12.651066 -3.867389 -5.601928 -9.246580 -38.626540 -0.898302 -28.642309 -47.767922 1.921220 -21.804863 -1.471267 -0.403389 0.734742 -21.923159 -15.030612 -3.474619 79.255620 3.193425 -0.718210 -5.858874 -1.096313 -0.011373 0.136660 -0.002589 -13.985571 -27.682522 -17.122661 65.396215 77.296645 61.095371 -18.916982 -11.493100 0.502868 -0.246034 -0.839145 -0.109627
-30.623636 57.963384 90.541696 -165.971748 -48.433708 -1.570093 -8.054893 28.705679 -0.652749 -1.437353 5.598579 0.067190 -2.234401 8.727482 0.041850 -6.152921 23.122849 -0.687403 0.947695 11.081023 -2.634265 3.035146 -15.179990 -5.518889 5.144594 0.673465 -2.662251 26.112891 -31.775878 -24.675675 56.682856 -72.062717 -9.844529 12.215623 -8.678597 -20.746921 -12.684080 -3.886120 -5.628061 -9.660541 -38.599327 -0.798900 -28.385529 -47.820948 2.025533 -21.610738 -1.513616 -0.198892 0.724756 -21.917377 -15.023926 -3.483744 79.254349 3.178460 -0.716207 -5.859211 -1.090188 -0.009523 0.134936 -0.004984 -13.992796 -27.676654 -17.117853 65.400347 77.295136 61.096098 -18.918232 -11.494495 0.501727 -0.260681 -0.838878 -0.105446
-30.626013 57.964166 90.540588 -165.970024 -48.436008 -1.575933 -8.074643 28.721121 -0.655907 -1.443774 5.605002 0.066797 -2.220203 8.718848 0.040228 -6.175516 23.140240 -0.688620 0.956200 11.070910 -2.641414 3.061677 -15.192531 -5.535542 5.172865 0.649441 -2.688113 26.092033 -31.780647 -24.684981 56.750727 -72.099159 -9.858701 12.265893 -8.762887 -20.875839 -12.672076 -3.913650 -5.643944 -10.230040 -38.557247 -0.678985 -27.968500 -47.931989 2.102801 -21.315786 -1.581424 0.061845 0.720597 -21.912472 -15.015586 -3.487104 79.252226 3.167961 -0.713871 -5.866115 -1.087658 -0.011687 0.138454 -0.002449 -13.996713 -27.673829 -17.108017 65.410915 77.296968 61.102197 -18.944159 -11.494025 0.507639 -0.239293 -0.840848 -0.104470
-30.627659 57.964690 90.539065 -165.966183 -48.435529 -1.588313 -8.084253 28.729554 -0.650084 -1.465822 5.622387 0.067046 -2.224405 8.722643 0.038515 -6.198825 23.146567 -0.695182 0.964788 11.062880 -2.649706 3.121803 -15.207625 -5.588748 5.215904 0.619237 -2.724397 26.092521 -31.791097 -24.682347 56.866223 -72.145158 -9.893693 12.297103 -8.789416 -21.028607 -12.773282 -3.878954 -5.725453 -10.796490 -38.564183 -0.397180 -27.424823 -48.155106 2.084205 -20.860768 -1.678848 0.413587 0.711228 -21.910275 -15.002694 -3.486922 79.249955 3.162069 -0.711703 -5.872766 -1.083353 -0.014728 0.140685 -0.003384 -14.008158 -27.674005 -17.089412 65.443478 77.300074 61.121138 -18.948426 -11.495744 0.515769 -0.232095 -0.842730 -0.104035
-30.629250 57.964243 90.537878 -165.940492 -48.425603 -1.617147 -8.108471 28.730353 -0.643063 -1.494689 5.643151 0.066253 -2.286616 8.768296 0.038475 -6.173379 23.111255 -0.705568 0.962872 11.057477 -2.662956 3.189784 -15.242508 -5.629232 5.264360 0.585334 -2.778100 26.147824 -31.844354 -24.745038 56.790198 -72.208876 -9.739557 12.319668 -8.785822 -21.178082 -12.869089 -3.845538 -5.805003 -11.291174 -38.550069 -0.076744 -26.784745 -48.551409 1.873615 -20.197002 -1.817558 0.876844 0.679150 -21.915557 -14.988985 -3.473240 79.245097 3.166057 -0.712927 -5.887731 -1.078541 -0.014020 0.150480 -0.006821 -14.036587 -27.686074 -17.067166 65.460072 77.309388 61.128315 -18.957365 -11.498632 0.515882 -0.210793 -0.842323 -0.099192
